<svg fill="#000000" xmlns="http://www.w3.org/2000/svg"  viewBox="0 0 100 100" width="100px" height="100px"><path d="M 50 8 C 33.44354 8 20 21.44354 20 38 C 20 48.849206 25.688295 57.085401 31.714844 64.744141 C 37.741393 72.40288 44.0983 79.553677 46.023438 88.216797 C 46.231761 89.155129 46.620381 90.060836 47.273438 90.779297 C 47.926493 91.497757 48.893286 92 50 92 C 51.106714 92 52.073507 91.497757 52.726562 90.779297 C 53.379619 90.060836 53.768238 89.155129 53.976562 88.216797 C 55.9017 79.553677 62.258607 72.40288 68.285156 64.744141 C 74.311705 57.085401 80 48.849206 80 38 C 80 21.44354 66.55646 8 50 8 z M 50 10 C 52.451416 10 54.828486 10.315764 57.09375 10.90625 L 41.275391 29.730469 L 29.033203 19.443359 C 34.16123 13.652458 41.648099 10 50 10 z M 58.148438 11.207031 C 65.505819 13.438568 71.571153 18.61397 74.988281 25.365234 L 61.496094 41.417969 C 61.819224 40.33356 62 39.18783 62 38 C 62 31.384429 56.615576 26 50 26 C 48.072833 26 46.25617 26.468122 44.640625 27.279297 L 58.148438 11.207031 z M 28.378906 20.201172 L 40.630859 30.496094 L 24.482422 49.708984 C 22.947739 46.117816 22 42.271527 22 38 C 22 31.236473 24.393511 25.038145 28.378906 20.201172 z M 75.464844 26.353516 C 77.087706 29.899991 78 33.841638 78 38 C 78 48.150794 72.688295 55.914599 66.714844 63.505859 C 60.741393 71.09712 54.0983 78.446323 52.023438 87.783203 C 51.872762 88.461871 51.589037 89.056304 51.246094 89.433594 C 50.90315 89.810883 50.550286 90 50 90 C 49.449714 90 49.09685 89.810883 48.753906 89.433594 C 48.410963 89.056304 48.127238 88.461871 47.976562 87.783203 C 46.513448 81.199189 42.769231 75.607849 38.599609 70.21875 L 75.464844 26.353516 z M 50 28 C 55.534697 28 60 32.465307 60 38 C 60 43.534693 55.534697 48 50 48 C 44.465303 48 40 43.534693 40 38 C 40 32.465307 44.465303 28 50 28 z M 74.195312 33.585938 A 0.50005 0.50005 0 0 0 73.691406 34.171875 C 73.763136 34.61563 73.810223 35.078316 73.859375 35.550781 A 0.50005 0.50005 0 1 0 74.853516 35.449219 C 74.804666 34.979684 74.756006 34.497917 74.677734 34.013672 A 0.50005 0.50005 0 0 0 74.195312 33.585938 z M 38.503906 34.582031 C 38.180776 35.66644 38 36.81217 38 38 C 38 44.615571 43.384424 50 50 50 C 51.928093 50 53.745206 49.530655 55.361328 48.71875 L 37.974609 69.40625 C 36.426226 67.430487 34.834858 65.475272 33.285156 63.505859 C 30.064151 59.412499 27.044655 55.265495 24.9375 50.724609 L 38.503906 34.582031 z M 74.484375 37.992188 A 0.50005 0.50005 0 0 0 73.980469 38.490234 C 73.946119 40.189227 73.750804 41.821636 73.396484 43.390625 A 0.50005 0.50005 0 1 0 74.371094 43.609375 C 74.740774 41.972364 74.944822 40.272773 74.980469 38.509766 A 0.50005 0.50005 0 0 0 74.484375 37.992188 z M 72.230469 47.994141 A 0.50005 0.50005 0 0 0 71.771484 48.300781 C 69.434246 53.696907 65.520578 58.607734 61.431641 63.722656 C 59.484954 66.158516 57.519723 68.634563 55.6875 71.210938 A 0.50005 0.50005 0 1 0 56.501953 71.789062 C 58.31373 69.241438 60.267578 66.779844 62.212891 64.345703 C 66.301953 59.230625 70.278691 54.265093 72.689453 48.699219 A 0.50005 0.50005 0 0 0 72.230469 47.994141 z"/></svg>